HIERARCHY
ROOT Hips
{
	OFFSET 0.000000 35.082581 0.000000
	CHANNELS 6 Xposition Yposition Zposition Xrotation Yrotation Zrotation 
	JOINT Spine
	{
		OFFSET 0.000000 6.876099 0.125700
		CHANNELS 3 Xrotation Yrotation Zrotation
		JOINT Spine1
		{
			OFFSET 0.000000 5.730043 0.104720
			CHANNELS 3 Xrotation Yrotation Zrotation
			JOINT Spine1_split
			{
				OFFSET 0.000000 5.730043 0.104720
				CHANNELS 3 Xrotation Yrotation Zrotation
				JOINT Spine2
				{
					OFFSET 0.000000 5.730043 0.104720
					CHANNELS 3 Xrotation Yrotation Zrotation
					JOINT Neck
					{
						OFFSET 0.000000 10.314075 0.188496
						CHANNELS 3 Xrotation Yrotation Zrotation
						JOINT Head
						{
							OFFSET 0.000000 7.643700 -2.377400
							CHANNELS 3 Xrotation Yrotation Zrotation
							JOINT HeadTop_End
							{
								OFFSET 0.000000 43.788605 -13.619600
								CHANNELS 3 Xrotation Yrotation Zrotation
								End Site
								{
									OFFSET 0.000000 0.000000 0.000000
								}
							}
						}
					}
					JOINT LeftShoulder
					{
						OFFSET 2.196100 4.412489 0.087492
						CHANNELS 3 Xrotation Yrotation Zrotation
						JOINT LeftShoulder_split
						{
							OFFSET 2.196100 4.412489 0.087492
							CHANNELS 3 Xrotation Yrotation Zrotation
							JOINT LeftArm
							{
								OFFSET 8.771219 -2.981674 -0.026999
								CHANNELS 3 Xrotation Yrotation Zrotation
								JOINT LeftForeArm
								{
									OFFSET 8.512804 0.000000 -0.000000
									CHANNELS 3 Xrotation Yrotation Zrotation
									JOINT LeftHand
									{
										OFFSET 18.484802 0.000000 -0.000000
										CHANNELS 3 Xrotation Yrotation Zrotation
										JOINT LeftHandThumb1
										{
											OFFSET 2.499420 -1.158070 2.653252
											CHANNELS 3 Xrotation Yrotation Zrotation
											JOINT LeftHandThumb2
											{
												OFFSET 2.370079 -1.368366 1.368366
												CHANNELS 3 Xrotation Yrotation Zrotation
												JOINT LeftHandThumb3
												{
													OFFSET 2.676727 -1.545410 1.545409
													CHANNELS 3 Xrotation Yrotation Zrotation
													JOINT LeftHandThumb4
													{
														OFFSET 1.692226 -0.977005 0.977007
														CHANNELS 3 Xrotation Yrotation Zrotation
														End Site
														{
															OFFSET 0.000000 0.000000 0.000000
														}
													}
												}
											}
										}
										JOINT LeftHandIndex1
										{
											OFFSET 7.924831 -0.457527 2.345128
											CHANNELS 3 Xrotation Yrotation Zrotation
											JOINT LeftHandIndex2
											{
												OFFSET 3.643303 0.000000 0.000000
												CHANNELS 3 Xrotation Yrotation Zrotation
												JOINT LeftHandIndex3
												{
													OFFSET 3.810799 0.000000 0.000000
													CHANNELS 3 Xrotation Yrotation Zrotation
													JOINT LeftHandIndex4
													{
														OFFSET 2.403702 0.000000 0.000000
														CHANNELS 3 Xrotation Yrotation Zrotation
														End Site
														{
															OFFSET 0.000000 0.000000 0.000000
														}
													}
												}
											}
										}
										JOINT LeftHandMiddle1
										{
											OFFSET 8.563995 0.000000 -0.000000
											CHANNELS 3 Xrotation Yrotation Zrotation
											JOINT LeftHandMiddle2
											{
												OFFSET 3.861618 0.000000 0.000000
												CHANNELS 3 Xrotation Yrotation Zrotation
												JOINT LeftHandMiddle3
												{
													OFFSET 3.701603 0.000000 0.000000
													CHANNELS 3 Xrotation Yrotation Zrotation
													JOINT LeftHandMiddle4
													{
														OFFSET 2.322544 0.000000 0.000000
														CHANNELS 3 Xrotation Yrotation Zrotation
														End Site
														{
															OFFSET 0.000000 0.000000 0.000000
														}
													}
												}
											}
										}
										JOINT LeftHandRing1
										{
											OFFSET 8.426460 -0.424637 -3.286992
											CHANNELS 3 Xrotation Yrotation Zrotation
											JOINT LeftHandRing2
											{
												OFFSET 3.126408 0.000000 0.000000
												CHANNELS 3 Xrotation Yrotation Zrotation
												JOINT LeftHandRing3
												{
													OFFSET 3.085026 0.000000 0.000000
													CHANNELS 3 Xrotation Yrotation Zrotation
													JOINT LeftHandRing4
													{
														OFFSET 1.644005 0.000000 0.000000
														CHANNELS 3 Xrotation Yrotation Zrotation
														End Site
														{
															OFFSET 0.000000 0.000000 0.000000
														}
													}
												}
											}
										}
									}
								}
							}
						}
					}
					JOINT RightShoulder
					{
						OFFSET -2.196100 4.412496 0.070690
						CHANNELS 3 Xrotation Yrotation Zrotation
						JOINT RightShoulder_split
						{
							OFFSET -2.196100 4.412496 0.070690
							CHANNELS 3 Xrotation Yrotation Zrotation
							JOINT RightArm
							{
								OFFSET -8.771282 -2.981682 -0.094208
								CHANNELS 3 Xrotation Yrotation Zrotation
								JOINT RightForeArm
								{
									OFFSET -8.494598 0.000000 0.000000
									CHANNELS 3 Xrotation Yrotation Zrotation
									JOINT RightHand
									{
										OFFSET -18.483803 0.000000 0.000001
										CHANNELS 3 Xrotation Yrotation Zrotation
										JOINT RightHandThumb1
										{
											OFFSET -2.527351 -1.008072 2.575253
											CHANNELS 3 Xrotation Yrotation Zrotation
											JOINT RightHandThumb2
											{
												OFFSET -2.321518 -1.340328 1.340329
												CHANNELS 3 Xrotation Yrotation Zrotation
												JOINT RightHandThumb3
												{
													OFFSET -2.657753 -1.534454 1.534455
													CHANNELS 3 Xrotation Yrotation Zrotation
													JOINT RightHandThumb4
													{
														OFFSET -1.807510 -1.043568 1.043567
														CHANNELS 3 Xrotation Yrotation Zrotation
														End Site
														{
															OFFSET 0.000000 0.000000 0.000000
														}
													}
												}
											}
										}
										JOINT RightHandIndex1
										{
											OFFSET -8.811420 0.015533 2.887987
											CHANNELS 3 Xrotation Yrotation Zrotation
											JOINT RightHandIndex2
											{
												OFFSET -3.537502 0.000000 0.000000
												CHANNELS 3 Xrotation Yrotation Zrotation
												JOINT RightHandIndex3
												{
													OFFSET -3.356201 0.000000 0.000000
													CHANNELS 3 Xrotation Yrotation Zrotation
													JOINT RightHandIndex4
													{
														OFFSET -1.933098 0.000000 0.000000
														CHANNELS 3 Xrotation Yrotation Zrotation
														End Site
														{
															OFFSET 0.000000 0.000000 0.000000
														}
													}
												}
											}
										}
										JOINT RightHandMiddle1
										{
											OFFSET -8.178135 0.000000 0.000000
											CHANNELS 3 Xrotation Yrotation Zrotation
											JOINT RightHandMiddle2
											{
												OFFSET -3.901302 0.000000 0.000000
												CHANNELS 3 Xrotation Yrotation Zrotation
												JOINT RightHandMiddle3
												{
													OFFSET -3.909599 0.000000 0.000000
													CHANNELS 3 Xrotation Yrotation Zrotation
													JOINT RightHandMiddle4
													{
														OFFSET -2.376003 0.000000 0.000000
														CHANNELS 3 Xrotation Yrotation Zrotation
														End Site
														{
															OFFSET 0.000000 0.000000 0.000000
														}
													}
												}
											}
										}
										JOINT RightHandRing1
										{
											OFFSET -7.559013 0.014137 -2.865403
											CHANNELS 3 Xrotation Yrotation Zrotation
											JOINT RightHandRing2
											{
												OFFSET -3.449306 0.000000 0.000000
												CHANNELS 3 Xrotation Yrotation Zrotation
												JOINT RightHandRing3
												{
													OFFSET -3.362106 0.000000 0.000000
													CHANNELS 3 Xrotation Yrotation Zrotation
													JOINT RightHandRing4
													{
														OFFSET -2.076401 0.000000 0.000000
														CHANNELS 3 Xrotation Yrotation Zrotation
														End Site
														{
															OFFSET 0.000000 0.000000 0.000000
														}
													}
												}
											}
										}
									}
								}
							}
						}
					}
				}
			}
		}
	}
	JOINT LeftUpLeg
	{
		OFFSET 10.205400 -3.823500 0.155100
		CHANNELS 3 Xrotation Yrotation Zrotation
		JOINT LeftLeg
		{
			OFFSET 0.708757 -12.982077 0.567790
			CHANNELS 3 Xrotation Yrotation Zrotation
			JOINT LeftFoot
			{
				OFFSET -0.708756 -10.717838 -2.184338
				CHANNELS 3 Xrotation Yrotation Zrotation
				JOINT LeftToeBase
				{
					OFFSET 0.108149 -7.191104 7.560241
					CHANNELS 3 Xrotation Yrotation Zrotation
					JOINT LeftToe_End
					{
						OFFSET 0.070230 0.081724 4.490308
						CHANNELS 3 Xrotation Yrotation Zrotation
						End Site
						{
							OFFSET 0.000000 0.000000 0.000000
						}
					}
				}
			}
		}
	}
	JOINT RightUpLeg
	{
		OFFSET -10.205400 -3.823500 0.005500
		CHANNELS 3 Xrotation Yrotation Zrotation
		JOINT RightLeg
		{
			OFFSET -0.708756 -12.982134 0.610632
			CHANNELS 3 Xrotation Yrotation Zrotation
			JOINT RightFoot
			{
				OFFSET 0.708754 -10.717769 -1.945823
				CHANNELS 3 Xrotation Yrotation Zrotation
				JOINT RightToeBase
				{
					OFFSET -0.108140 -7.191069 7.372968
					CHANNELS 3 Xrotation Yrotation Zrotation
					JOINT RightToe_End
					{
						OFFSET -0.070227 0.081735 4.479403
						CHANNELS 3 Xrotation Yrotation Zrotation
						End Site
						{
							OFFSET 0.000000 0.000000 0.000000
						}
					}
				}
			}
		}
	}
}
MOTION
Frames: 4
Frame Time: 0.016667
6.038374 32.153114 -1.317056 4.157872 -46.548771 3.459072 9.995474 -5.747194 2.092430 3.056891 -1.359242 -0.696761 0.000000 0.000000 0.000000 -8.919072 -4.431370 -1.692195 -8.566929 -5.142930 -4.413995 10.444450 -20.693643 6.191014 -0.000000 0.000001 0.000000 -0.955898 -3.915915 -2.538364 0.000000 0.000000 0.000000 13.282559 6.823596 -62.263608 -0.021045 -42.236882 -0.010383 -13.882455 -0.489232 0.693296 10.625184 -8.591985 14.272394 -0.294852 14.668207 -7.135016 3.583863 12.313815 3.409807 -0.000001 -0.000000 -0.000004 1.031652 -1.592166 -15.118844 -0.015788 -1.091863 -24.286211 -0.057105 -0.568063 -12.300546 -0.000002 -0.000001 0.000001 1.615776 -0.182613 -33.849280 -0.338695 -1.382249 -28.184975 -0.280256 -1.320607 -26.616183 -0.000001 -0.000004 0.000001 -0.356904 -2.845863 -41.642953 -0.398113 -1.519199 -29.911867 -0.345609 -1.655585 -31.556317 0.000001 0.000001 -0.000000 -0.771032 0.311195 0.883995 0.000000 0.000000 0.000000 3.113843 10.823070 70.823857 0.587855 47.471020 -0.255428 14.368654 15.131243 2.773466 8.265275 7.734449 -18.880801 5.407333 -20.572692 9.835180 1.742519 -3.611572 0.678884 0.000000 0.000000 -0.000000 0.428046 3.999538 18.226184 -0.076238 1.217076 27.275404 -0.057337 0.568970 12.320493 0.000001 -0.000002 -0.000000 -5.761816 0.366104 35.692793 -0.334664 1.374763 28.018551 -0.284284 1.328639 26.790391 -0.000001 0.000001 0.000001 -11.821789 -3.411386 42.352473 -0.510553 1.699973 33.914334 -0.344134 1.653144 31.504022 0.000002 0.000000 -0.000000 -10.041119 16.641384 1.844835 39.408679 21.954709 2.770740 -23.947010 25.669972 -15.648756 -2.951744 -2.232074 -2.573842 0.000000 0.000000 -0.000000 -6.733430 -41.907510 -15.172343 33.834630 -8.649947 -1.733170 -25.962147 -12.142479 18.443888 -4.804044 2.347673 2.814743 -0.000001 0.000000 -0.000000 
5.972748 32.154484 -1.404472 3.940855 -48.251912 3.519596 9.924902 -5.772843 2.091820 2.967051 -1.211543 -0.652806 0.000000 0.000000 0.000000 -9.020274 -4.366696 -1.601919 -8.544200 -4.716539 -4.541435 10.608239 -19.712411 5.755013 -0.000000 0.000000 0.000000 -0.878242 -4.226530 -2.232988 0.000000 0.000000 0.000000 13.531504 6.780619 -62.153028 -0.020241 -42.480618 -0.009949 -13.978584 -1.700564 0.681737 10.610707 -8.609822 14.293145 -0.357707 14.631843 -7.082092 3.544713 12.122216 3.317806 -0.000003 -0.000001 -0.000002 1.074715 -1.682906 -15.031764 -0.013506 -1.086869 -24.167998 -0.056452 -0.565019 -12.233727 0.000001 -0.000003 -0.000001 1.556026 -0.222463 -33.860294 -0.339063 -1.382943 -28.200482 -0.273227 -1.306448 -26.308659 0.000000 -0.000001 0.000002 -0.383737 -2.808688 -41.684242 -0.402815 -1.527376 -30.088745 -0.346140 -1.656468 -31.574199 0.000001 -0.000002 0.000001 -0.846754 0.820782 0.916795 0.000000 0.000000 0.000000 2.989866 9.871441 70.799514 0.512271 47.191075 -0.227957 14.622723 15.064759 2.863394 8.265273 7.734451 -18.880810 5.407333 -20.572689 9.835179 1.742526 -3.611577 0.678883 0.000000 -0.000001 -0.000004 0.423798 3.988749 18.092819 -0.070887 1.206681 27.024441 -0.057047 0.567905 12.297328 -0.000000 0.000002 -0.000000 -5.693473 0.419505 35.471327 -0.331007 1.367864 27.864933 -0.284021 1.328041 26.778312 -0.000000 -0.000000 -0.000000 -11.722670 -3.292692 42.202568 -0.507882 1.695971 33.824347 -0.342021 1.649854 31.433391 0.000003 -0.000000 -0.000001 -8.576246 17.015675 1.635021 38.616353 22.896794 2.749228 -23.831175 26.206319 -16.456439 -2.615638 -1.916435 -2.884445 0.000000 -0.000001 0.000000 -7.738035 -41.625266 -16.000135 34.556779 -8.321798 -1.674535 -25.582036 -11.922320 18.191268 -5.415654 2.348736 2.459599 -0.000001 0.000001 0.000000 
5.902626 32.170963 -1.486384 3.766761 -49.806139 3.529811 9.859046 -5.728437 2.072140 2.895066 -1.071983 -0.562721 0.000000 0.000000 0.000000 -9.100051 -4.316044 -1.464395 -8.530105 -4.413683 -4.597618 10.720726 -18.797791 5.274395 -0.000000 0.000000 -0.000000 -0.800621 -4.500690 -1.933160 0.000000 0.000000 0.000000 13.652179 6.640066 -62.119635 -0.019422 -42.599784 -0.009502 -13.882679 -2.727300 0.797319 10.581102 -8.637590 14.338661 -0.414999 14.605914 -7.028247 3.471651 11.765825 3.146825 -0.000003 0.000004 -0.000000 1.114333 -1.838920 -14.860081 -0.009417 -1.077742 -23.952761 -0.055256 -0.559476 -12.112061 0.000001 -0.000001 0.000002 1.447502 -0.296454 -33.824569 -0.338988 -1.382820 -28.197572 -0.261199 -1.281832 -25.776625 0.000000 -0.000001 0.000001 -0.428767 -2.746214 -41.695378 -0.407281 -1.535074 -30.256922 -0.345848 -1.656017 -31.565337 0.000002 -0.000001 0.000001 -0.922049 1.266275 0.964549 0.000000 0.000000 0.000000 2.893485 8.881800 70.701583 0.416260 46.895850 -0.192450 14.871096 14.853413 2.950818 8.265273 7.734452 -18.880806 5.407334 -20.572690 9.835186 1.742526 -3.611574 0.678882 -0.000000 -0.000002 -0.000000 0.417019 3.978104 17.908613 -0.063676 1.192404 26.680708 -0.056754 0.566452 12.264598 -0.000001 -0.000000 0.000000 -5.592580 0.494513 35.169057 -0.326003 1.358335 27.654883 -0.283548 1.327116 26.757633 -0.000004 -0.000003 0.000003 -11.569881 -3.123235 41.996108 -0.504098 1.690302 33.696216 -0.339195 1.645116 31.333349 0.000001 0.000002 0.000000 -7.779680 17.394996 1.667654 38.670325 24.073572 2.771079 -23.651682 26.243650 -17.055351 -2.120288 -1.451129 -3.341885 0.000000 -0.000000 -0.000000 -8.912818 -41.188991 -16.611152 35.503856 -7.677934 -1.623275 -26.088490 -11.186246 17.421723 -5.415651 2.348638 2.459602 -0.000000 0.000003 0.000000 
5.837370 32.199730 -1.572241 3.610438 -51.199347 3.463475 9.797845 -5.610001 2.033049 2.839598 -0.944634 -0.432631 0.000000 0.000000 0.000000 -9.159908 -4.281943 -1.286581 -8.508167 -4.235825 -4.578831 10.792601 -17.958405 4.764732 -0.000000 -0.000001 -0.000000 -0.726156 -4.749509 -1.633536 0.000000 0.000000 0.000000 13.608961 6.402163 -62.096665 -0.018528 -42.554052 -0.009067 -13.603444 -3.571035 1.026153 10.535336 -8.677453 14.409850 -0.467909 14.589180 -6.973110 3.362498 11.235058 2.892910 -0.000006 -0.000000 -0.000002 1.151712 -2.065179 -14.597895 -0.003388 -1.063945 -23.629338 -0.053469 -0.551161 -11.929763 0.000000 -0.000001 0.000002 1.286342 -0.405998 -33.745041 -0.338498 -1.381868 -28.176899 -0.243946 -1.245400 -24.993348 0.000000 0.000002 -0.000001 -0.495294 -2.655276 -41.684105 -0.411517 -1.542237 -30.413302 -0.344791 -1.654291 -31.528331 0.000000 -0.000000 -0.000002 -0.995143 1.645279 1.031877 0.000000 0.000000 0.000000 2.815504 7.867709 70.540083 0.304946 46.539492 -0.149995 15.123888 14.466184 3.017635 8.265273 7.734456 -18.880805 5.407331 -20.572690 9.835186 1.742519 -3.611577 0.678890 -0.000001 -0.000002 -0.000000 0.408405 3.965424 17.675049 -0.054630 1.174348 26.246995 -0.056341 0.564493 12.221580 -0.000000 -0.000001 0.000001 -5.466610 0.586050 34.785679 -0.319730 1.346282 27.387885 -0.282830 1.325653 26.725635 -0.000002 0.000003 0.000001 -11.377711 -2.913360 41.731073 -0.499251 1.683044 33.531427 -0.335446 1.638905 31.201305 0.000000 0.000001 0.000001 -7.929109 17.696429 2.441941 40.114036 24.699972 2.698681 -22.653378 26.078745 -18.531300 -1.518855 -0.885946 -3.896947 0.000000 -0.000001 -0.000000 -9.625303 -40.644902 -16.732618 36.040712 -7.291837 -1.609947 -26.359039 -10.582329 16.731377 -5.415650 2.348612 2.459614 0.000000 -0.000001 -0.000000 
